<svg width="104" height="104" viewBox="0 0 104 104" fill="none" xmlns="http://www.w3.org/2000/svg">
<rect x="12" y="2" width="80" height="80" rx="20" fill="#1173D4"/>
<g filter="url(#filter0_dd_14_10)">
<rect x="12" y="2" width="80" height="80" rx="20" fill="white" fill-opacity="0.01" shape-rendering="crispEdges"/>
</g>
<path d="M51.7817 55.3333C51.8928 55.3333 52.0039 55.3056 52.115 55.25C52.2261 55.1944 52.3094 55.1389 52.365 55.0833L66.0317 41.4167C66.365 41.0833 66.6081 40.7083 66.7608 40.2917C66.9136 39.875 66.99 39.4583 66.99 39.0417C66.99 38.5972 66.9136 38.1736 66.7608 37.7708C66.6081 37.3681 66.365 37.0139 66.0317 36.7083L58.9483 29.625C58.6428 29.2917 58.2886 29.0486 57.8858 28.8958C57.4831 28.7431 57.0595 28.6667 56.615 28.6667C56.1983 28.6667 55.7817 28.7431 55.365 28.8958C54.9483 29.0486 54.5733 29.2917 54.24 29.625L53.7817 30.0833L56.865 33.2083C57.2817 33.5972 57.5872 34.0417 57.7817 34.5417C57.9761 35.0417 58.0733 35.5694 58.0733 36.125C58.0733 37.2917 57.6775 38.2708 56.8858 39.0625C56.0942 39.8542 55.115 40.25 53.9483 40.25C53.3928 40.25 52.8581 40.1528 52.3442 39.9583C51.8303 39.7639 51.3789 39.4722 50.99 39.0833L47.865 36L40.5733 43.2917C40.49 43.375 40.4275 43.4653 40.3858 43.5625C40.3442 43.6597 40.3233 43.7639 40.3233 43.875C40.3233 44.0972 40.4067 44.2986 40.5733 44.4792C40.74 44.6597 40.9344 44.75 41.1567 44.75C41.2678 44.75 41.3789 44.7222 41.49 44.6667C41.6011 44.6111 41.6844 44.5556 41.74 44.5L47.4067 38.8333L49.74 41.1667L44.115 46.8333C44.0317 46.9167 43.9692 47.0069 43.9275 47.1042C43.8858 47.2014 43.865 47.3056 43.865 47.4167C43.865 47.6389 43.9483 47.8333 44.115 48C44.2817 48.1667 44.4761 48.25 44.6983 48.25C44.8095 48.25 44.9206 48.2222 45.0317 48.1667C45.1428 48.1111 45.2261 48.0556 45.2817 48L50.9483 42.375L53.2817 44.7083L47.6567 50.375C47.5733 50.4306 47.5108 50.5139 47.4692 50.625C47.4275 50.7361 47.4067 50.8472 47.4067 50.9583C47.4067 51.1806 47.49 51.375 47.6567 51.5417C47.8233 51.7083 48.0178 51.7917 48.24 51.7917C48.3511 51.7917 48.4553 51.7708 48.5525 51.7292C48.6497 51.6875 48.74 51.625 48.8233 51.5417L54.49 45.9167L56.8233 48.25L51.1567 53.9167C51.0733 54 51.0108 54.0903 50.9692 54.1875C50.9275 54.2847 50.9067 54.3889 50.9067 54.5C50.9067 54.7222 50.9969 54.9167 51.1775 55.0833C51.3581 55.25 51.5594 55.3333 51.7817 55.3333ZM51.74 58.6667C50.7122 58.6667 49.8025 58.3264 49.0108 57.6458C48.2192 56.9653 47.7539 56.1111 47.615 55.0833C46.6706 54.9444 45.8789 54.5556 45.24 53.9167C44.6011 53.2778 44.2122 52.4861 44.0733 51.5417C43.1289 51.4028 42.3442 51.0069 41.7192 50.3542C41.0942 49.7014 40.7122 48.9167 40.5733 48C39.5178 47.8611 38.6567 47.4028 37.99 46.625C37.3233 45.8472 36.99 44.9306 36.99 43.875C36.99 43.3194 37.0942 42.7847 37.3025 42.2708C37.5108 41.7569 37.8094 41.3056 38.1983 40.9167L47.865 31.2917L53.3233 36.75C53.3789 36.8333 53.4622 36.8958 53.5733 36.9375C53.6844 36.9792 53.7956 37 53.9067 37C54.1567 37 54.365 36.9236 54.5317 36.7708C54.6983 36.6181 54.7817 36.4167 54.7817 36.1667C54.7817 36.0556 54.7608 35.9444 54.7192 35.8333C54.6775 35.7222 54.615 35.6389 54.5317 35.5833L48.5733 29.625C48.2678 29.2917 47.9136 29.0486 47.5108 28.8958C47.1081 28.7431 46.6844 28.6667 46.24 28.6667C45.8233 28.6667 45.4067 28.7431 44.99 28.8958C44.5733 29.0486 44.1983 29.2917 43.865 29.625L37.99 35.5417C37.74 35.7917 37.5317 36.0833 37.365 36.4167C37.1983 36.75 37.0872 37.0833 37.0317 37.4167C36.9761 37.75 36.9761 38.0903 37.0317 38.4375C37.0872 38.7847 37.1983 39.1111 37.365 39.4167L34.9483 41.8333C34.4761 41.1944 34.1289 40.4931 33.9067 39.7292C33.6844 38.9653 33.6011 38.1944 33.6567 37.4167C33.7122 36.6389 33.9067 35.8819 34.24 35.1458C34.5733 34.4097 35.0317 33.75 35.615 33.1667L41.49 27.2917C42.1567 26.6528 42.8997 26.1667 43.7192 25.8333C44.5386 25.5 45.3789 25.3333 46.24 25.3333C47.1011 25.3333 47.9414 25.5 48.7608 25.8333C49.5803 26.1667 50.3094 26.6528 50.9483 27.2917L51.4067 27.75L51.865 27.2917C52.5317 26.6528 53.2747 26.1667 54.0942 25.8333C54.9136 25.5 55.7539 25.3333 56.615 25.3333C57.4761 25.3333 58.3164 25.5 59.1358 25.8333C59.9553 26.1667 60.6845 26.6528 61.3233 27.2917L68.365 34.3333C69.0039 34.9722 69.49 35.7083 69.8233 36.5417C70.1567 37.375 70.3233 38.2222 70.3233 39.0833C70.3233 39.9444 70.1567 40.7847 69.8233 41.6042C69.49 42.4236 69.0039 43.1528 68.365 43.7917L54.6983 57.4167C54.3095 57.8056 53.8581 58.1111 53.3442 58.3333C52.8303 58.5556 52.2956 58.6667 51.74 58.6667Z" fill="white"/>
<defs>
<filter id="filter0_dd_14_10" x="0" y="0" width="104" height="104" filterUnits="userSpaceOnUse" color-interpolation-filters="sRGB">
<feFlood flood-opacity="0" result="BackgroundImageFix"/>
<feColorMatrix in="SourceAlpha" type="matrix" values="0 0 0 0 0 0 0 0 0 0 0 0 0 0 0 0 0 0 127 0" result="hardAlpha"/>
<feMorphology radius="4" operator="erode" in="SourceAlpha" result="effect1_dropShadow_14_10"/>
<feOffset dy="4"/>
<feGaussianBlur stdDeviation="3"/>
<feComposite in2="hardAlpha" operator="out"/>
<feColorMatrix type="matrix" values="0 0 0 0 0.0666667 0 0 0 0 0.45098 0 0 0 0 0.831373 0 0 0 0.2 0"/>
<feBlend mode="normal" in2="BackgroundImageFix" result="effect1_dropShadow_14_10"/>
<feColorMatrix in="SourceAlpha" type="matrix" values="0 0 0 0 0 0 0 0 0 0 0 0 0 0 0 0 0 0 127 0" result="hardAlpha"/>
<feMorphology radius="3" operator="erode" in="SourceAlpha" result="effect2_dropShadow_14_10"/>
<feOffset dy="10"/>
<feGaussianBlur stdDeviation="7.5"/>
<feComposite in2="hardAlpha" operator="out"/>
<feColorMatrix type="matrix" values="0 0 0 0 0.0666667 0 0 0 0 0.45098 0 0 0 0 0.831373 0 0 0 0.2 0"/>
<feBlend mode="normal" in2="effect1_dropShadow_14_10" result="effect2_dropShadow_14_10"/>
<feBlend mode="normal" in="SourceGraphic" in2="effect2_dropShadow_14_10" result="shape"/>
</filter>
</defs>
</svg>
